<?xml version="1.0" standalone="no"?><svg xmlns="http://www.w3.org/2000/svg" viewBox="0 0 1440 320"><path fill="#0cab78" fill-opacity="1" d="M0,96L12.6,106.7C25.3,117,51,139,76,170.7C101.1,203,126,245,152,266.7C176.8,288,202,288,227,256C252.6,224,278,160,303,149.3C328.4,139,354,181,379,192C404.2,203,429,181,455,144C480,107,505,53,531,69.3C555.8,85,581,171,606,186.7C631.6,203,657,149,682,122.7C707.4,96,733,96,758,117.3C783.2,139,808,181,834,192C858.9,203,884,181,909,170.7C934.7,160,960,160,985,133.3C1010.5,107,1036,53,1061,48C1086.3,43,1112,85,1137,101.3C1162.1,117,1187,107,1213,138.7C1237.9,171,1263,245,1288,266.7C1313.7,288,1339,256,1364,202.7C1389.5,149,1415,75,1427,37.3L1440,0L1440,320L1427.4,320C1414.7,320,1389,320,1364,320C1338.9,320,1314,320,1288,320C1263.2,320,1238,320,1213,320C1187.4,320,1162,320,1137,320C1111.6,320,1086,320,1061,320C1035.8,320,1011,320,985,320C960,320,935,320,909,320C884.2,320,859,320,834,320C808.4,320,783,320,758,320C732.6,320,707,320,682,320C656.8,320,632,320,606,320C581.1,320,556,320,531,320C505.3,320,480,320,455,320C429.5,320,404,320,379,320C353.7,320,328,320,303,320C277.9,320,253,320,227,320C202.1,320,177,320,152,320C126.3,320,101,320,76,320C50.5,320,25,320,13,320L0,320Z"></path></svg>